<svg id="visual" viewBox="0 0 960 200" width="960" height="200" xmlns="http://www.w3.org/2000/svg" xmlns:xlink="http://www.w3.org/1999/xlink" version="1.1"><rect x="0" y="0" width="960" height="200" fill="#001122"></rect><path d="M0 115L22.8 115C45.7 115 91.3 115 137 115.5C182.7 116 228.3 117 274 116.7C319.7 116.3 365.3 114.7 411.2 108.7C457 102.7 503 92.3 548.8 92.8C594.7 93.3 640.3 104.7 686 111.5C731.7 118.3 777.3 120.7 823 115.7C868.7 110.7 914.3 98.3 937.2 92.2L960 86L960 0L937.2 0C914.3 0 868.7 0 823 0C777.3 0 731.7 0 686 0C640.3 0 594.7 0 548.8 0C503 0 457 0 411.2 0C365.3 0 319.7 0 274 0C228.3 0 182.7 0 137 0C91.3 0 45.7 0 22.8 0L0 0Z" fill="#fa7268"></path><path d="M0 60L22.8 59.5C45.7 59 91.3 58 137 63.7C182.7 69.3 228.3 81.7 274 88.8C319.7 96 365.3 98 411.2 92.3C457 86.7 503 73.3 548.8 66.7C594.7 60 640.3 60 686 60.7C731.7 61.3 777.3 62.7 823 62.5C868.7 62.3 914.3 60.7 937.2 59.8L960 59L960 0L937.2 0C914.3 0 868.7 0 823 0C777.3 0 731.7 0 686 0C640.3 0 594.7 0 548.8 0C503 0 457 0 411.2 0C365.3 0 319.7 0 274 0C228.3 0 182.7 0 137 0C91.3 0 45.7 0 22.8 0L0 0Z" fill="#eb5967"></path><path d="M0 72L22.8 66C45.7 60 91.3 48 137 42.3C182.7 36.7 228.3 37.3 274 43.7C319.7 50 365.3 62 411.2 67.3C457 72.7 503 71.3 548.8 67.8C594.7 64.3 640.3 58.7 686 58.7C731.7 58.7 777.3 64.3 823 62.8C868.7 61.3 914.3 52.7 937.2 48.3L960 44L960 0L937.2 0C914.3 0 868.7 0 823 0C777.3 0 731.7 0 686 0C640.3 0 594.7 0 548.8 0C503 0 457 0 411.2 0C365.3 0 319.7 0 274 0C228.3 0 182.7 0 137 0C91.3 0 45.7 0 22.8 0L0 0Z" fill="#da3f67"></path><path d="M0 32L22.8 29.2C45.7 26.3 91.3 20.7 137 22C182.7 23.3 228.3 31.7 274 33.5C319.7 35.3 365.3 30.7 411.2 29.2C457 27.7 503 29.3 548.8 30.3C594.7 31.3 640.3 31.7 686 28.5C731.7 25.3 777.3 18.7 823 16.3C868.7 14 914.3 16 937.2 17L960 18L960 0L937.2 0C914.3 0 868.7 0 823 0C777.3 0 731.7 0 686 0C640.3 0 594.7 0 548.8 0C503 0 457 0 411.2 0C365.3 0 319.7 0 274 0C228.3 0 182.7 0 137 0C91.3 0 45.7 0 22.8 0L0 0Z" fill="#c62368"></path></svg>